<?xml version="1.0" encoding="UTF-8" standalone="no"?>
<!-- Created with Inkscape (http://www.inkscape.org/) -->

<svg
   xmlns:osb="http://www.openswatchbook.org/uri/2009/osb"
   xmlns:dc="http://purl.org/dc/elements/1.1/"
   xmlns:cc="http://creativecommons.org/ns#"
   xmlns:rdf="http://www.w3.org/1999/02/22-rdf-syntax-ns#"
   xmlns:svg="http://www.w3.org/2000/svg"
   xmlns="http://www.w3.org/2000/svg"
   xmlns:xlink="http://www.w3.org/1999/xlink"
   xmlns:sodipodi="http://sodipodi.sourceforge.net/DTD/sodipodi-0.dtd"
   xmlns:inkscape="http://www.inkscape.org/namespaces/inkscape"
   width="512"
   height="512"
   id="svg3972"
   version="1.1"
   inkscape:version="0.48.0 r9654"
   sodipodi:docname="icon_simple.svg"
   inkscape:export-filename="/home/ronny/persoenliches/Programme/JBackpack/jbackpack/src/ch/fhnw/jbackpack/icons/16x16/icon.png"
   inkscape:export-xdpi="2.8099999"
   inkscape:export-ydpi="2.8099999">
  <defs
     id="defs3974">
    <linearGradient
       id="linearGradient3820">
      <stop
         style="stop-color:#7399ab;stop-opacity:1;"
         offset="0"
         id="stop3822" />
      <stop
         style="stop-color:#fffeff;stop-opacity:1;"
         offset="1"
         id="stop3824" />
    </linearGradient>
    <linearGradient
       inkscape:collect="always"
       id="linearGradient5144">
      <stop
         style="stop-color:#ab7392;stop-opacity:1;"
         offset="0"
         id="stop5146" />
      <stop
         style="stop-color:#ffffff;stop-opacity:0.02909091"
         offset="1"
         id="stop5148" />
    </linearGradient>
    <linearGradient
       id="linearGradient5130">
      <stop
         id="stop5140"
         offset="0"
         style="stop-color:#a08f82;stop-opacity:0.74901961;" />
      <stop
         id="stop5138"
         offset="0.5"
         style="stop-color:#ab7392;stop-opacity:0.49803922;" />
      <stop
         style="stop-color:#ab7392;stop-opacity:0;"
         offset="1"
         id="stop5134" />
    </linearGradient>
    <linearGradient
       id="linearGradient4519"
       osb:paint="gradient">
      <stop
         style="stop-color:#5d879d;stop-opacity:1;"
         offset="0"
         id="stop4521" />
      <stop
         style="stop-color:#5d879d;stop-opacity:0;"
         offset="1"
         id="stop4523" />
    </linearGradient>
    <filter
       id="filter4697"
       inkscape:label="Drop shadow"
       width="1.5"
       height="1.5"
       x="-0.25"
       y="-0.25"
       color-interpolation-filters="sRGB">
      <feGaussianBlur
         id="feGaussianBlur4699"
         in="SourceAlpha"
         stdDeviation="2"
         result="blur" />
      <feColorMatrix
         id="feColorMatrix4701"
         result="bluralpha"
         type="matrix"
         values="1 0 0 0 0 0 1 0 0 0 0 0 1 0 0 0 0 0 0.5 0 " />
      <feOffset
         id="feOffset4703"
         in="bluralpha"
         dx="4"
         dy="4"
         result="offsetBlur" />
      <feMerge
         id="feMerge4705">
        <feMergeNode
           id="feMergeNode4707"
           in="offsetBlur" />
        <feMergeNode
           id="feMergeNode4709"
           in="SourceGraphic" />
      </feMerge>
    </filter>
    <filter
       id="filter5086"
       inkscape:label="Drop shadow"
       width="1.5"
       height="1.5"
       x="-0.25"
       y="-0.25"
       color-interpolation-filters="sRGB">
      <feGaussianBlur
         id="feGaussianBlur5088"
         in="SourceAlpha"
         stdDeviation="5"
         result="blur" />
      <feColorMatrix
         id="feColorMatrix5090"
         result="bluralpha"
         type="matrix"
         values="1 0 0 0 0 0 1 0 0 0 0 0 1 0 0 0 0 0 0.5 0 " />
      <feOffset
         id="feOffset5092"
         in="bluralpha"
         dx="10"
         dy="10"
         result="offsetBlur" />
      <feMerge
         id="feMerge5094">
        <feMergeNode
           id="feMergeNode5096"
           in="offsetBlur" />
        <feMergeNode
           id="feMergeNode5098"
           in="SourceGraphic" />
      </feMerge>
    </filter>
    <linearGradient
       inkscape:collect="always"
       xlink:href="#linearGradient5130"
       id="linearGradient5136"
       x1="119.76609"
       y1="431.36642"
       x2="631.76611"
       y2="431.36642"
       gradientUnits="userSpaceOnUse" />
    <radialGradient
       inkscape:collect="always"
       xlink:href="#linearGradient5144"
       id="radialGradient5150"
       cx="294.02567"
       cy="300.53604"
       fx="294.02567"
       fy="300.53604"
       r="183.84033"
       gradientTransform="matrix(0.66691196,0.43225768,-0.44145763,0.68110633,230.61036,-24.143353)"
       gradientUnits="userSpaceOnUse" />
    <linearGradient
       inkscape:collect="always"
       xlink:href="#linearGradient3820"
       id="linearGradient3826"
       x1="339.43503"
       y1="370.08636"
       x2="66.978798"
       y2="135.09288"
       gradientUnits="userSpaceOnUse"
       gradientTransform="translate(-0.76609,0.99577262)" />
    <filter
       inkscape:collect="always"
       id="filter4381"
       color-interpolation-filters="sRGB">
      <feGaussianBlur
         inkscape:collect="always"
         stdDeviation="2.5"
         id="feGaussianBlur4383" />
    </filter>
  </defs>
  <sodipodi:namedview
     id="base"
     pagecolor="#ffffff"
     bordercolor="#666666"
     borderopacity="1.0"
     inkscape:pageopacity="0.0"
     inkscape:pageshadow="2"
     inkscape:zoom="0.88087544"
     inkscape:cx="247.04724"
     inkscape:cy="167.18109"
     inkscape:document-units="px"
     inkscape:current-layer="layer1"
     showgrid="false"
     inkscape:window-width="1596"
     inkscape:window-height="1135"
     inkscape:window-x="0"
     inkscape:window-y="0"
     inkscape:window-maximized="1"
     fit-margin-top="0"
     fit-margin-left="0"
     fit-margin-right="0"
     fit-margin-bottom="0" />
  <metadata
     id="metadata3977">
    <rdf:RDF>
      <cc:Work
         rdf:about="">
        <dc:format>image/svg+xml</dc:format>
        <dc:type
           rdf:resource="http://purl.org/dc/dcmitype/StillImage" />
        <dc:title></dc:title>
      </cc:Work>
    </rdf:RDF>
  </metadata>
  <g
     inkscape:label="Ebene 1"
     inkscape:groupmode="layer"
     id="layer1"
     transform="translate(-125,-181.36218)">
    <rect
       style="fill:#4a6c7c;fill-opacity:1;fill-rule:nonzero;stroke:none"
       id="rect4721"
       width="447.67984"
       height="413.62286"
       x="149.85089"
       y="220.23546"
       rx="0"
       ry="0" />
    <path
       inkscape:connector-curvature="0"
       id="path4369"
       d="m 171.875,187.36218 c -22.64111,0 -40.875,18.20264 -40.875,40.84375 l 0,418.28125 c 0,22.64111 18.23389,40.875 40.875,40.875 l 418.28125,0 c 22.64111,0 40.84375,-18.23389 40.84375,-40.875 l 0,-418.28125 c 0,-22.64111 -18.20264,-40.84375 -40.84375,-40.84375 l -418.28125,0 z m 228.15625,72.90625 c 97.80772,0 177.09375,79.28603 177.09375,177.09375 0,97.80772 -79.28603,177.09375 -177.09375,177.09375 l 0,-46.5625 C 474.01402,567.89343 534,509.46403 534,437.36218 c 0,-72.10185 -59.98598,-130.5625 -133.96875,-130.5625 -73.98274,0 -133.9375,58.46065 -133.9375,130.5625 l 36.875,0 -58.46875,87.40625 -59.59375,-87.40625 38.03125,0 c 0,-97.80772 79.28604,-177.09375 177.09375,-177.09375 z M 462.625,381.42468 c 2.87451,-0.0214 5.51441,0.93958 7.40625,2.9375 l 1.5625,1.65625 c 4.32421,4.56668 3.03048,12.78473 -2.90625,18.40625 l -62.125,58.78125 c -5.93673,5.62152 -14.17579,6.47293 -18.5,1.90625 l -0.15625,-0.15625 c -1.06448,-0.52738 -2.12321,-1.17303 -3.125,-1.9375 l -42.40625,-32.375 c -6.49967,-4.9599 -8.65903,-12.96905 -4.84375,-17.96875 l 1.375,-1.8125 c 3.81528,-4.9997 12.12533,-5.0224 18.625,-0.0625 l 37.6875,28.78125 56.28125,-53.3125 c 3.33941,-3.16211 7.4292,-4.81615 11.125,-4.84375 z"
       style="fill:#000000;fill-opacity:0.4094203;fill-rule:nonzero;stroke:none;filter:url(#filter4381)" />
    <path
       style="fill:url(#linearGradient3826);fill-opacity:1;fill-rule:nonzero;stroke:none"
       d="m 165.875,182.36218 c -22.64111,0 -40.875,18.20264 -40.875,40.84375 l 0,418.28125 c 0,22.64111 18.23389,40.875 40.875,40.875 l 418.28125,0 c 22.64111,0 40.84375,-18.23389 40.84375,-40.875 l 0,-418.28125 c 0,-22.64111 -18.20264,-40.84375 -40.84375,-40.84375 l -418.28125,0 z m 228.15625,72.90625 c 97.80772,0 177.09375,79.28603 177.09375,177.09375 0,97.80772 -79.28603,177.09375 -177.09375,177.09375 l 0,-46.5625 C 468.01402,562.89343 528,504.46403 528,432.36218 c 0,-72.10185 -59.98598,-130.5625 -133.96875,-130.5625 -73.98274,0 -133.9375,58.46065 -133.9375,130.5625 l 36.875,0 -58.46875,87.40625 -59.59375,-87.40625 38.03125,0 c 0,-97.80772 79.28604,-177.09375 177.09375,-177.09375 z M 456.625,376.42468 c 2.87451,-0.0214 5.51441,0.93958 7.40625,2.9375 l 1.5625,1.65625 c 4.32421,4.56668 3.03048,12.78473 -2.90625,18.40625 l -62.125,58.78125 c -5.93673,5.62152 -14.17579,6.47293 -18.5,1.90625 l -0.15625,-0.15625 c -1.06448,-0.52738 -2.12321,-1.17303 -3.125,-1.9375 l -42.40625,-32.375 c -6.49967,-4.9599 -8.65903,-12.96905 -4.84375,-17.96875 l 1.375,-1.8125 c 3.81528,-4.9997 12.12533,-5.0224 18.625,-0.0625 l 37.6875,28.78125 56.28125,-53.3125 c 3.33941,-3.16211 7.4292,-4.81615 11.125,-4.84375 z"
       id="rect4723"
       inkscape:connector-curvature="0" />
  </g>
</svg>
